G04 #@! TF.FileFunction,Copper,L4,Bot,Signal*
%FSLAX46Y46*%
G04 Gerber Fmt 4.6, Leading zero omitted, Abs format (unit mm)*
G04 Created by KiCad (PCBNEW (2015-08-16 BZR 6097, Git b384c94)-product) date 1/3/2016 5:05:16 PM*
%MOMM*%
G01*
G04 APERTURE LIST*
%ADD10C,0.100000*%
%ADD11C,3.200000*%
%ADD12R,1.727200X2.032000*%
%ADD13O,1.727200X2.032000*%
%ADD14C,2.500000*%
%ADD15C,3.000000*%
%ADD16C,0.600000*%
%ADD17C,0.254000*%
G04 APERTURE END LIST*
D10*
D11*
X119761000Y-89154000D03*
X172339000Y-89154000D03*
X172339000Y-115189000D03*
D12*
X121920000Y-81915000D03*
D13*
X124460000Y-81915000D03*
X127000000Y-81915000D03*
X129540000Y-81915000D03*
X132080000Y-81915000D03*
X134620000Y-81915000D03*
X137160000Y-81915000D03*
X139700000Y-81915000D03*
X142240000Y-81915000D03*
X144780000Y-81915000D03*
X147320000Y-81915000D03*
X149860000Y-81915000D03*
X152400000Y-81915000D03*
X154940000Y-81915000D03*
X157480000Y-81915000D03*
X160020000Y-81915000D03*
X162560000Y-81915000D03*
X165100000Y-81915000D03*
X167640000Y-81915000D03*
X170180000Y-81915000D03*
D14*
X166121000Y-94613000D03*
X125961000Y-94613000D03*
D15*
X166121000Y-91613000D03*
X125961000Y-91613000D03*
D11*
X119761000Y-115189000D03*
D16*
X130683000Y-85852000D03*
X151003000Y-91440000D03*
X148336000Y-91694000D03*
X139700000Y-91440000D03*
X161544000Y-91440000D03*
X147320000Y-84836000D03*
X149860000Y-84836000D03*
X140716000Y-85852000D03*
X150241000Y-92075000D03*
X131445000Y-91440000D03*
X138049000Y-93345000D03*
X138684000Y-91440000D03*
X145796000Y-91440000D03*
X153924000Y-91440000D03*
D17*
X147320000Y-84836000D02*
X147320000Y-81915000D01*
X149860000Y-84836000D02*
X149860000Y-81915000D01*
X155448000Y-83312000D02*
X158775400Y-83312000D01*
X158775400Y-83312000D02*
X160020000Y-82067400D01*
X160020000Y-82067400D02*
X160020000Y-81915000D01*
X153296999Y-85463001D02*
X155448000Y-83312000D01*
X140716000Y-85852000D02*
X141104999Y-85463001D01*
X141104999Y-85463001D02*
X153296999Y-85463001D01*
X150241000Y-92075000D02*
X150241000Y-89161066D01*
X150241000Y-89161066D02*
X155455066Y-83947000D01*
X155455066Y-83947000D02*
X160680400Y-83947000D01*
X160680400Y-83947000D02*
X162560000Y-82067400D01*
X162560000Y-82067400D02*
X162560000Y-81915000D01*
X165100000Y-81915000D02*
X165100000Y-82169000D01*
X165100000Y-82169000D02*
X158369000Y-88900000D01*
X158369000Y-88900000D02*
X154686000Y-88900000D01*
X154686000Y-88900000D02*
X150876000Y-92710000D01*
X150876000Y-92710000D02*
X132715000Y-92710000D01*
X132715000Y-92710000D02*
X131445000Y-91440000D01*
X164236400Y-85471000D02*
X156362400Y-93345000D01*
X156362400Y-93345000D02*
X138049000Y-93345000D01*
X167640000Y-81915000D02*
X167640000Y-82067400D01*
X167640000Y-82067400D02*
X164236400Y-85471000D01*
M02*
