G04 #@! TF.FileFunction,Copper,L1,Top,Signal*
%FSLAX46Y46*%
G04 Gerber Fmt 4.6, Leading zero omitted, Abs format (unit mm)*
G04 Created by KiCad (PCBNEW (2015-08-16 BZR 6097, Git b384c94)-product) date 1/3/2016 5:05:16 PM*
%MOMM*%
G01*
G04 APERTURE LIST*
%ADD10C,0.100000*%
%ADD11C,3.200000*%
%ADD12R,1.727200X2.032000*%
%ADD13O,1.727200X2.032000*%
%ADD14R,3.000000X5.400000*%
%ADD15C,2.500000*%
%ADD16C,3.000000*%
%ADD17R,0.400000X4.500000*%
%ADD18C,0.600000*%
%ADD19C,0.254000*%
%ADD20C,0.381000*%
G04 APERTURE END LIST*
D10*
D11*
X119761000Y-89154000D03*
X172339000Y-89154000D03*
X172339000Y-115189000D03*
D12*
X121920000Y-81915000D03*
D13*
X124460000Y-81915000D03*
X127000000Y-81915000D03*
X129540000Y-81915000D03*
X132080000Y-81915000D03*
X134620000Y-81915000D03*
X137160000Y-81915000D03*
X139700000Y-81915000D03*
X142240000Y-81915000D03*
X144780000Y-81915000D03*
X147320000Y-81915000D03*
X149860000Y-81915000D03*
X152400000Y-81915000D03*
X154940000Y-81915000D03*
X157480000Y-81915000D03*
X160020000Y-81915000D03*
X162560000Y-81915000D03*
X165100000Y-81915000D03*
X167640000Y-81915000D03*
X170180000Y-81915000D03*
D14*
X167869000Y-111147000D03*
D15*
X166121000Y-94613000D03*
X125961000Y-94613000D03*
D16*
X166121000Y-91613000D03*
D17*
X161590000Y-88659000D03*
X160955000Y-88659000D03*
X160320000Y-88659000D03*
X159685000Y-88659000D03*
X159050000Y-88659000D03*
X158415000Y-88659000D03*
X157780000Y-88659000D03*
X157145000Y-88659000D03*
X156510000Y-88659000D03*
X155875000Y-88659000D03*
X155240000Y-88659000D03*
X154605000Y-88659000D03*
X153970000Y-88659000D03*
X153335000Y-88659000D03*
X152700000Y-88659000D03*
X152065000Y-88659000D03*
X151430000Y-88659000D03*
X150795000Y-88659000D03*
X150160000Y-88659000D03*
X149525000Y-88659000D03*
X148890000Y-88659000D03*
X148255000Y-88659000D03*
X147620000Y-88659000D03*
X146985000Y-88659000D03*
X146350000Y-88659000D03*
X145715000Y-88659000D03*
X145080000Y-88659000D03*
X144445000Y-88659000D03*
X143810000Y-88659000D03*
X143175000Y-88659000D03*
X142540000Y-88659000D03*
X141905000Y-88659000D03*
X141270000Y-88659000D03*
X140635000Y-88659000D03*
X140000000Y-88659000D03*
X139365000Y-88659000D03*
X138730000Y-88659000D03*
X137460000Y-88659000D03*
X138095000Y-88659000D03*
X136825000Y-88659000D03*
X136190000Y-88659000D03*
X135555000Y-88659000D03*
X134920000Y-88659000D03*
X134285000Y-88659000D03*
X133015000Y-88659000D03*
X132380000Y-88659000D03*
X131745000Y-88659000D03*
X131110000Y-88659000D03*
X130475000Y-88659000D03*
D16*
X125961000Y-91613000D03*
D17*
X133650000Y-88659000D03*
D14*
X124449000Y-111147000D03*
D11*
X119761000Y-115189000D03*
D18*
X130683000Y-85852000D03*
X151003000Y-91440000D03*
X148336000Y-91694000D03*
X139700000Y-91440000D03*
X161544000Y-91440000D03*
X147320000Y-84836000D03*
X149860000Y-84836000D03*
X140716000Y-85852000D03*
X150241000Y-92075000D03*
X131445000Y-91440000D03*
X138049000Y-93345000D03*
X138684000Y-91440000D03*
X145796000Y-91440000D03*
X153924000Y-91440000D03*
D19*
X130475000Y-88659000D02*
X130475000Y-86060000D01*
X130475000Y-86060000D02*
X130683000Y-85852000D01*
D20*
X150795000Y-88659000D02*
X150795000Y-91232000D01*
X150795000Y-91232000D02*
X151003000Y-91440000D01*
X148336000Y-91440000D02*
X148336000Y-91694000D01*
X149525000Y-88659000D02*
X149525000Y-91290000D01*
X149525000Y-91290000D02*
X149375000Y-91440000D01*
X149375000Y-91440000D02*
X148336000Y-91440000D01*
X144445000Y-88659000D02*
X144445000Y-86028000D01*
X144445000Y-86028000D02*
X144269000Y-85852000D01*
X144269000Y-85852000D02*
X143351000Y-85852000D01*
X143351000Y-85852000D02*
X143175000Y-86028000D01*
X143175000Y-86028000D02*
X143175000Y-88659000D01*
X143175000Y-88659000D02*
X143175000Y-91140000D01*
X142875000Y-91440000D02*
X141905000Y-91440000D01*
X143175000Y-91140000D02*
X142875000Y-91440000D01*
X141905000Y-88659000D02*
X141905000Y-91440000D01*
X141905000Y-91440000D02*
X141732000Y-91440000D01*
X139365000Y-91105000D02*
X139700000Y-91440000D01*
X139365000Y-91105000D02*
X139365000Y-88659000D01*
X141732000Y-91440000D02*
X139700000Y-91440000D01*
X148255000Y-88659000D02*
X148255000Y-91440000D01*
X148255000Y-91440000D02*
X148336000Y-91440000D01*
X147620000Y-88659000D02*
X147620000Y-91440000D01*
X147620000Y-91440000D02*
X147828000Y-91440000D01*
X146985000Y-88659000D02*
X146985000Y-91105000D01*
X146985000Y-91105000D02*
X147320000Y-91440000D01*
X147320000Y-91440000D02*
X147828000Y-91440000D01*
X147828000Y-91440000D02*
X148336000Y-91440000D01*
X147620000Y-88659000D02*
X148255000Y-88659000D01*
X146985000Y-88659000D02*
X147620000Y-88659000D01*
D19*
X161590000Y-88659000D02*
X161590000Y-91394000D01*
X161590000Y-91394000D02*
X161544000Y-91440000D01*
X128524000Y-92262163D02*
X128524000Y-83591400D01*
X128524000Y-83591400D02*
X127000000Y-82067400D01*
X127000000Y-82067400D02*
X127000000Y-81915000D01*
X136825000Y-88659000D02*
X136825000Y-91163000D01*
X136825000Y-91163000D02*
X134558969Y-93429031D01*
X134558969Y-93429031D02*
X129690868Y-93429031D01*
X129690868Y-93429031D02*
X128524000Y-92262163D01*
X135555000Y-88659000D02*
X135555000Y-91163000D01*
X135555000Y-91163000D02*
X133742979Y-92975021D01*
X133742979Y-92975021D02*
X129878925Y-92975021D01*
X129878925Y-92975021D02*
X129020979Y-92117075D01*
X129020979Y-92117075D02*
X129020979Y-83704021D01*
X129020979Y-83704021D02*
X129540000Y-83185000D01*
X129540000Y-83185000D02*
X129540000Y-81915000D01*
X129474989Y-91929018D02*
X129474989Y-84672411D01*
X130066982Y-92521011D02*
X129474989Y-91929018D01*
X134285000Y-91163000D02*
X132926989Y-92521011D01*
X132926989Y-92521011D02*
X130066982Y-92521011D01*
X134285000Y-88659000D02*
X134285000Y-91163000D01*
X129474989Y-84672411D02*
X132080000Y-82067400D01*
X132080000Y-82067400D02*
X132080000Y-81915000D01*
X134620000Y-82067400D02*
X134620000Y-81915000D01*
X131462401Y-85224999D02*
X134620000Y-82067400D01*
X129928999Y-85678039D02*
X130382039Y-85224999D01*
X130382039Y-85224999D02*
X131462401Y-85224999D01*
X132110999Y-92067001D02*
X130255039Y-92067001D01*
X130255039Y-92067001D02*
X129928999Y-91740961D01*
X133015000Y-91163000D02*
X132110999Y-92067001D01*
X129928999Y-91740961D02*
X129928999Y-85678039D01*
X133015000Y-88659000D02*
X133015000Y-91163000D01*
X136144000Y-85852000D02*
X137160000Y-84836000D01*
X137160000Y-84836000D02*
X137160000Y-81915000D01*
X132048000Y-85852000D02*
X136144000Y-85852000D01*
X131745000Y-88659000D02*
X131745000Y-86155000D01*
X131745000Y-86155000D02*
X132048000Y-85852000D01*
X139700000Y-82067400D02*
X139700000Y-81915000D01*
X151930668Y-84208999D02*
X141841599Y-84208999D01*
X158112000Y-85852000D02*
X153573669Y-85852000D01*
X153573669Y-85852000D02*
X151930668Y-84208999D01*
X158415000Y-86155000D02*
X158112000Y-85852000D01*
X158415000Y-88659000D02*
X158415000Y-86155000D01*
X141841599Y-84208999D02*
X139700000Y-82067400D01*
X153707735Y-85344000D02*
X152118724Y-83754989D01*
X161844961Y-92067001D02*
X162171001Y-91740961D01*
X157145000Y-91163000D02*
X158049001Y-92067001D01*
X157145000Y-88659000D02*
X157145000Y-91163000D01*
X143927589Y-83754989D02*
X142240000Y-82067400D01*
X162171001Y-91740961D02*
X162171001Y-86201399D01*
X158049001Y-92067001D02*
X161844961Y-92067001D01*
X161313602Y-85344000D02*
X153707735Y-85344000D01*
X152118724Y-83754989D02*
X143927589Y-83754989D01*
X162171001Y-86201399D02*
X161313602Y-85344000D01*
X142240000Y-82067400D02*
X142240000Y-81915000D01*
X144780000Y-82067400D02*
X144780000Y-81915000D01*
X146013579Y-83300979D02*
X144780000Y-82067400D01*
X153841801Y-84836000D02*
X152306780Y-83300979D01*
X162625011Y-86013342D02*
X161447669Y-84836000D01*
X152306780Y-83300979D02*
X146013579Y-83300979D01*
X162033018Y-92521011D02*
X162625011Y-91929018D01*
X157233011Y-92521011D02*
X162033018Y-92521011D01*
X155875000Y-91163000D02*
X157233011Y-92521011D01*
X155875000Y-88659000D02*
X155875000Y-91163000D01*
X162625011Y-91929018D02*
X162625011Y-86013342D01*
X161447669Y-84836000D02*
X153841801Y-84836000D01*
X147320000Y-85344000D02*
X147320000Y-84836000D01*
X147828000Y-85852000D02*
X147320000Y-85344000D01*
X148336000Y-85852000D02*
X147828000Y-85852000D01*
X151762000Y-85852000D02*
X148336000Y-85852000D01*
X152065000Y-88659000D02*
X152065000Y-86155000D01*
X152065000Y-86155000D02*
X151762000Y-85852000D01*
X147320000Y-82067400D02*
X147320000Y-81915000D01*
X151892000Y-84836000D02*
X149860000Y-84836000D01*
X152400000Y-85344000D02*
X151892000Y-84836000D01*
X152423602Y-85344000D02*
X152400000Y-85344000D01*
X153227001Y-86147399D02*
X152423602Y-85344000D01*
X153335000Y-88659000D02*
X153227001Y-88551001D01*
X153227001Y-88551001D02*
X153227001Y-86147399D01*
X149860000Y-81788000D02*
X149860000Y-81915000D01*
X149860000Y-81915000D02*
X149860000Y-82067400D01*
X154605000Y-88659000D02*
X154605000Y-91163000D01*
X152400000Y-82067400D02*
X152400000Y-81915000D01*
X156417021Y-92975021D02*
X162221075Y-92975021D01*
X154605000Y-91163000D02*
X156417021Y-92975021D01*
X162221075Y-92975021D02*
X163079021Y-92117075D01*
X163079021Y-92117075D02*
X163079021Y-85825285D01*
X161581736Y-84328000D02*
X154660600Y-84328000D01*
X163079021Y-85825285D02*
X161581736Y-84328000D01*
X154660600Y-84328000D02*
X152400000Y-82067400D01*
X145080000Y-88659000D02*
X145080000Y-91651962D01*
X163576000Y-92456000D02*
X163576000Y-85680198D01*
X145080000Y-91651962D02*
X146900038Y-93472000D01*
X146900038Y-93472000D02*
X162560000Y-93472000D01*
X162560000Y-93472000D02*
X163576000Y-92456000D01*
X163576000Y-85680198D02*
X161715802Y-83820000D01*
X161715802Y-83820000D02*
X155448000Y-83820000D01*
X155448000Y-83820000D02*
X154940000Y-83312000D01*
X154940000Y-83312000D02*
X154940000Y-81915000D01*
X143810000Y-88659000D02*
X143810000Y-91163000D01*
X143810000Y-91163000D02*
X146627000Y-93980000D01*
X146627000Y-93980000D02*
X163068000Y-93980000D01*
X157480000Y-82067400D02*
X157480000Y-81915000D01*
X163068000Y-93980000D02*
X164084000Y-92964000D01*
X164084000Y-92964000D02*
X164084000Y-85344000D01*
X164084000Y-85344000D02*
X162052000Y-83312000D01*
X162052000Y-83312000D02*
X158724600Y-83312000D01*
X158724600Y-83312000D02*
X157480000Y-82067400D01*
X140635000Y-88659000D02*
X140635000Y-85933000D01*
X140635000Y-85933000D02*
X140716000Y-85852000D01*
X150160000Y-88659000D02*
X150160000Y-91994000D01*
X150160000Y-91994000D02*
X150241000Y-92075000D01*
X131445000Y-91440000D02*
X131110000Y-91105000D01*
X131110000Y-91105000D02*
X131110000Y-88659000D01*
X138049000Y-93345000D02*
X138056999Y-93337001D01*
X138056999Y-93337001D02*
X138056999Y-91201001D01*
X138056999Y-91201001D02*
X138095000Y-91163000D01*
X138095000Y-91163000D02*
X138095000Y-88659000D01*
D20*
X138730000Y-88659000D02*
X138730000Y-91394000D01*
X138730000Y-91394000D02*
X138684000Y-91440000D01*
X146350000Y-88659000D02*
X146350000Y-90886000D01*
X146350000Y-90886000D02*
X145796000Y-91440000D01*
X145715000Y-88659000D02*
X145715000Y-91359000D01*
X145715000Y-91359000D02*
X145796000Y-91440000D01*
D19*
X153970000Y-88659000D02*
X153970000Y-91394000D01*
X153970000Y-91394000D02*
X153924000Y-91440000D01*
M02*
