M48
INCH,TZ
T1C0.016
T2C0.040
T3C0.067
T4C0.087
T5C0.126
%
G90
G05
T1
X51450Y-33800
X51750Y-36000
X54350Y-36750
X54600Y-36000
X55000Y-36000
X55400Y-33800
X57400Y-36000
X58000Y-33400
X58400Y-36100
X59000Y-33400
X59150Y-36250
X59450Y-36000
X60600Y-36000
X63600Y-36000
T2
X48000Y-32250
X49000Y-32250
X50000Y-32250
X51000Y-32250
X52000Y-32250
X53000Y-32250
X54000Y-32250
X55000Y-32250
X56000Y-32250
X57000Y-32250
X58000Y-32250
X59000Y-32250
X60000Y-32250
X61000Y-32250
X62000Y-32250
X63000Y-32250
X64000Y-32250
X65000Y-32250
X66000Y-32250
X67000Y-32250
T3
X49591Y-37249
X65402Y-37249
T4
X49591Y-36068
X65402Y-36068
T5
X47150Y-35100
X47150Y-45350
X67850Y-35100
X67850Y-45350
T0
M30
