G04 #@! TF.FileFunction,Copper,L3,Inr,Plane*
%FSLAX46Y46*%
G04 Gerber Fmt 4.6, Leading zero omitted, Abs format (unit mm)*
G04 Created by KiCad (PCBNEW (2015-08-16 BZR 6097, Git b384c94)-product) date 1/3/2016 5:05:16 PM*
%MOMM*%
G01*
G04 APERTURE LIST*
%ADD10C,0.100000*%
%ADD11C,3.200000*%
%ADD12R,1.727200X2.032000*%
%ADD13O,1.727200X2.032000*%
%ADD14C,2.500000*%
%ADD15C,3.000000*%
%ADD16C,0.600000*%
%ADD17C,0.254000*%
G04 APERTURE END LIST*
D10*
D11*
X119761000Y-89154000D03*
X172339000Y-89154000D03*
X172339000Y-115189000D03*
D12*
X121920000Y-81915000D03*
D13*
X124460000Y-81915000D03*
X127000000Y-81915000D03*
X129540000Y-81915000D03*
X132080000Y-81915000D03*
X134620000Y-81915000D03*
X137160000Y-81915000D03*
X139700000Y-81915000D03*
X142240000Y-81915000D03*
X144780000Y-81915000D03*
X147320000Y-81915000D03*
X149860000Y-81915000D03*
X152400000Y-81915000D03*
X154940000Y-81915000D03*
X157480000Y-81915000D03*
X160020000Y-81915000D03*
X162560000Y-81915000D03*
X165100000Y-81915000D03*
X167640000Y-81915000D03*
X170180000Y-81915000D03*
D14*
X166121000Y-94613000D03*
X125961000Y-94613000D03*
D15*
X166121000Y-91613000D03*
X125961000Y-91613000D03*
D11*
X119761000Y-115189000D03*
D16*
X130683000Y-85852000D03*
X151003000Y-91440000D03*
X148336000Y-91694000D03*
X139700000Y-91440000D03*
X161544000Y-91440000D03*
X147320000Y-84836000D03*
X149860000Y-84836000D03*
X140716000Y-85852000D03*
X150241000Y-92075000D03*
X131445000Y-91440000D03*
X138049000Y-93345000D03*
X138684000Y-91440000D03*
X145796000Y-91440000D03*
X153924000Y-91440000D03*
D17*
G36*
X120408960Y-80899000D02*
X120408960Y-82931000D01*
X120453238Y-83166317D01*
X120592310Y-83382441D01*
X120804510Y-83527431D01*
X121056400Y-83578440D01*
X122783600Y-83578440D01*
X123018917Y-83534162D01*
X123235041Y-83395090D01*
X123380031Y-83182890D01*
X123388400Y-83141561D01*
X123400330Y-83159415D01*
X123886511Y-83484271D01*
X124460000Y-83598345D01*
X125033489Y-83484271D01*
X125519670Y-83159415D01*
X125730000Y-82844634D01*
X125940330Y-83159415D01*
X126426511Y-83484271D01*
X127000000Y-83598345D01*
X127573489Y-83484271D01*
X128059670Y-83159415D01*
X128270000Y-82844634D01*
X128480330Y-83159415D01*
X128966511Y-83484271D01*
X129540000Y-83598345D01*
X130113489Y-83484271D01*
X130599670Y-83159415D01*
X130810000Y-82844634D01*
X131020330Y-83159415D01*
X131506511Y-83484271D01*
X132080000Y-83598345D01*
X132653489Y-83484271D01*
X133139670Y-83159415D01*
X133350000Y-82844634D01*
X133560330Y-83159415D01*
X134046511Y-83484271D01*
X134620000Y-83598345D01*
X135193489Y-83484271D01*
X135679670Y-83159415D01*
X135890000Y-82844634D01*
X136100330Y-83159415D01*
X136586511Y-83484271D01*
X137160000Y-83598345D01*
X137733489Y-83484271D01*
X138219670Y-83159415D01*
X138430000Y-82844634D01*
X138640330Y-83159415D01*
X139126511Y-83484271D01*
X139700000Y-83598345D01*
X140273489Y-83484271D01*
X140759670Y-83159415D01*
X140970000Y-82844634D01*
X141180330Y-83159415D01*
X141666511Y-83484271D01*
X142240000Y-83598345D01*
X142813489Y-83484271D01*
X143299670Y-83159415D01*
X143510000Y-82844634D01*
X143720330Y-83159415D01*
X144206511Y-83484271D01*
X144780000Y-83598345D01*
X145353489Y-83484271D01*
X145839670Y-83159415D01*
X146050000Y-82844634D01*
X146260330Y-83159415D01*
X146746511Y-83484271D01*
X147320000Y-83598345D01*
X147893489Y-83484271D01*
X148379670Y-83159415D01*
X148590000Y-82844634D01*
X148800330Y-83159415D01*
X149286511Y-83484271D01*
X149860000Y-83598345D01*
X150433489Y-83484271D01*
X150919670Y-83159415D01*
X151130000Y-82844634D01*
X151340330Y-83159415D01*
X151826511Y-83484271D01*
X152400000Y-83598345D01*
X152973489Y-83484271D01*
X153459670Y-83159415D01*
X153670000Y-82844634D01*
X153880330Y-83159415D01*
X154366511Y-83484271D01*
X154940000Y-83598345D01*
X155513489Y-83484271D01*
X155999670Y-83159415D01*
X156210000Y-82844634D01*
X156420330Y-83159415D01*
X156906511Y-83484271D01*
X157480000Y-83598345D01*
X158053489Y-83484271D01*
X158539670Y-83159415D01*
X158750000Y-82844634D01*
X158960330Y-83159415D01*
X159446511Y-83484271D01*
X160020000Y-83598345D01*
X160593489Y-83484271D01*
X161079670Y-83159415D01*
X161290000Y-82844634D01*
X161500330Y-83159415D01*
X161986511Y-83484271D01*
X162560000Y-83598345D01*
X163133489Y-83484271D01*
X163619670Y-83159415D01*
X163830000Y-82844634D01*
X164040330Y-83159415D01*
X164526511Y-83484271D01*
X165100000Y-83598345D01*
X165673489Y-83484271D01*
X166159670Y-83159415D01*
X166370000Y-82844634D01*
X166580330Y-83159415D01*
X167066511Y-83484271D01*
X167640000Y-83598345D01*
X168213489Y-83484271D01*
X168699670Y-83159415D01*
X168906461Y-82849931D01*
X169277964Y-83265732D01*
X169805209Y-83519709D01*
X169820974Y-83522358D01*
X170053000Y-83401217D01*
X170053000Y-82042000D01*
X170307000Y-82042000D01*
X170307000Y-83401217D01*
X170539026Y-83522358D01*
X170554791Y-83519709D01*
X171082036Y-83265732D01*
X171471954Y-82829320D01*
X171665184Y-82276913D01*
X171520924Y-82042000D01*
X170307000Y-82042000D01*
X170053000Y-82042000D01*
X170033000Y-82042000D01*
X170033000Y-81788000D01*
X170053000Y-81788000D01*
X170053000Y-81768000D01*
X170307000Y-81768000D01*
X170307000Y-81788000D01*
X171520924Y-81788000D01*
X171665184Y-81553087D01*
X171471954Y-81000680D01*
X171221177Y-80720000D01*
X174550000Y-80720000D01*
X174550000Y-88652360D01*
X174234845Y-87889628D01*
X173606679Y-87260364D01*
X172785519Y-86919389D01*
X171896381Y-86918613D01*
X171074628Y-87258155D01*
X170445364Y-87886321D01*
X170104389Y-88707481D01*
X170103613Y-89596619D01*
X170443155Y-90418372D01*
X171071321Y-91047636D01*
X171892481Y-91388611D01*
X172781619Y-91389387D01*
X173603372Y-91049845D01*
X174232636Y-90421679D01*
X174550000Y-89657381D01*
X174550000Y-114687360D01*
X174234845Y-113924628D01*
X173606679Y-113295364D01*
X172785519Y-112954389D01*
X171896381Y-112953613D01*
X171074628Y-113293155D01*
X170445364Y-113921321D01*
X170104389Y-114742481D01*
X170103613Y-115631619D01*
X170443155Y-116453372D01*
X171071321Y-117082636D01*
X171835619Y-117400000D01*
X120262640Y-117400000D01*
X121025372Y-117084845D01*
X121654636Y-116456679D01*
X121995611Y-115635519D01*
X121996387Y-114746381D01*
X121656845Y-113924628D01*
X121028679Y-113295364D01*
X120207519Y-112954389D01*
X119318381Y-112953613D01*
X118496628Y-113293155D01*
X117867364Y-113921321D01*
X117550000Y-114685619D01*
X117550000Y-92035815D01*
X123825630Y-92035815D01*
X124149980Y-92820800D01*
X124618276Y-93289914D01*
X124363907Y-93543839D01*
X124076328Y-94236405D01*
X124075674Y-94986305D01*
X124362043Y-95679372D01*
X124891839Y-96210093D01*
X125584405Y-96497672D01*
X126334305Y-96498326D01*
X127027372Y-96211957D01*
X127558093Y-95682161D01*
X127845672Y-94989595D01*
X127846326Y-94239695D01*
X127559957Y-93546628D01*
X127543525Y-93530167D01*
X137113838Y-93530167D01*
X137255883Y-93873943D01*
X137518673Y-94137192D01*
X137862201Y-94279838D01*
X138234167Y-94280162D01*
X138577943Y-94138117D01*
X138841192Y-93875327D01*
X138983838Y-93531799D01*
X138984162Y-93159833D01*
X138842117Y-92816057D01*
X138579327Y-92552808D01*
X138235799Y-92410162D01*
X137863833Y-92409838D01*
X137520057Y-92551883D01*
X137256808Y-92814673D01*
X137114162Y-93158201D01*
X137113838Y-93530167D01*
X127543525Y-93530167D01*
X127303416Y-93289639D01*
X127769909Y-92823959D01*
X128095628Y-92039541D01*
X128095989Y-91625167D01*
X130509838Y-91625167D01*
X130651883Y-91968943D01*
X130914673Y-92232192D01*
X131258201Y-92374838D01*
X131630167Y-92375162D01*
X131973943Y-92233117D01*
X132237192Y-91970327D01*
X132379838Y-91626799D01*
X132379839Y-91625167D01*
X138764838Y-91625167D01*
X138906883Y-91968943D01*
X139169673Y-92232192D01*
X139513201Y-92374838D01*
X139885167Y-92375162D01*
X140228943Y-92233117D01*
X140492192Y-91970327D01*
X140530045Y-91879167D01*
X147400838Y-91879167D01*
X147542883Y-92222943D01*
X147805673Y-92486192D01*
X148149201Y-92628838D01*
X148521167Y-92629162D01*
X148864943Y-92487117D01*
X149092289Y-92260167D01*
X149305838Y-92260167D01*
X149447883Y-92603943D01*
X149710673Y-92867192D01*
X150054201Y-93009838D01*
X150426167Y-93010162D01*
X150769943Y-92868117D01*
X151033192Y-92605327D01*
X151128787Y-92375110D01*
X151188167Y-92375162D01*
X151531943Y-92233117D01*
X151795192Y-91970327D01*
X151937838Y-91626799D01*
X151937839Y-91625167D01*
X160608838Y-91625167D01*
X160750883Y-91968943D01*
X161013673Y-92232192D01*
X161357201Y-92374838D01*
X161729167Y-92375162D01*
X162072943Y-92233117D01*
X162270589Y-92035815D01*
X163985630Y-92035815D01*
X164309980Y-92820800D01*
X164778276Y-93289914D01*
X164523907Y-93543839D01*
X164236328Y-94236405D01*
X164235674Y-94986305D01*
X164522043Y-95679372D01*
X165051839Y-96210093D01*
X165744405Y-96497672D01*
X166494305Y-96498326D01*
X167187372Y-96211957D01*
X167718093Y-95682161D01*
X168005672Y-94989595D01*
X168006326Y-94239695D01*
X167719957Y-93546628D01*
X167463416Y-93289639D01*
X167929909Y-92823959D01*
X168255628Y-92039541D01*
X168256370Y-91190185D01*
X167932020Y-90405200D01*
X167331959Y-89804091D01*
X166547541Y-89478372D01*
X165698185Y-89477630D01*
X164913200Y-89801980D01*
X164312091Y-90402041D01*
X163986372Y-91186459D01*
X163985630Y-92035815D01*
X162270589Y-92035815D01*
X162336192Y-91970327D01*
X162478838Y-91626799D01*
X162479162Y-91254833D01*
X162337117Y-90911057D01*
X162074327Y-90647808D01*
X161730799Y-90505162D01*
X161358833Y-90504838D01*
X161015057Y-90646883D01*
X160751808Y-90909673D01*
X160609162Y-91253201D01*
X160608838Y-91625167D01*
X151937839Y-91625167D01*
X151938162Y-91254833D01*
X151796117Y-90911057D01*
X151533327Y-90647808D01*
X151189799Y-90505162D01*
X150817833Y-90504838D01*
X150474057Y-90646883D01*
X150210808Y-90909673D01*
X150115213Y-91139890D01*
X150055833Y-91139838D01*
X149712057Y-91281883D01*
X149448808Y-91544673D01*
X149306162Y-91888201D01*
X149305838Y-92260167D01*
X149092289Y-92260167D01*
X149128192Y-92224327D01*
X149270838Y-91880799D01*
X149271162Y-91508833D01*
X149129117Y-91165057D01*
X148866327Y-90901808D01*
X148522799Y-90759162D01*
X148150833Y-90758838D01*
X147807057Y-90900883D01*
X147543808Y-91163673D01*
X147401162Y-91507201D01*
X147400838Y-91879167D01*
X140530045Y-91879167D01*
X140634838Y-91626799D01*
X140635162Y-91254833D01*
X140493117Y-90911057D01*
X140230327Y-90647808D01*
X139886799Y-90505162D01*
X139514833Y-90504838D01*
X139171057Y-90646883D01*
X138907808Y-90909673D01*
X138765162Y-91253201D01*
X138764838Y-91625167D01*
X132379839Y-91625167D01*
X132380162Y-91254833D01*
X132238117Y-90911057D01*
X131975327Y-90647808D01*
X131631799Y-90505162D01*
X131259833Y-90504838D01*
X130916057Y-90646883D01*
X130652808Y-90909673D01*
X130510162Y-91253201D01*
X130509838Y-91625167D01*
X128095989Y-91625167D01*
X128096370Y-91190185D01*
X127772020Y-90405200D01*
X127171959Y-89804091D01*
X126387541Y-89478372D01*
X125538185Y-89477630D01*
X124753200Y-89801980D01*
X124152091Y-90402041D01*
X123826372Y-91186459D01*
X123825630Y-92035815D01*
X117550000Y-92035815D01*
X117550000Y-89655640D01*
X117865155Y-90418372D01*
X118493321Y-91047636D01*
X119314481Y-91388611D01*
X120203619Y-91389387D01*
X121025372Y-91049845D01*
X121654636Y-90421679D01*
X121995611Y-89600519D01*
X121996387Y-88711381D01*
X121656845Y-87889628D01*
X121028679Y-87260364D01*
X120207519Y-86919389D01*
X119318381Y-86918613D01*
X118496628Y-87258155D01*
X117867364Y-87886321D01*
X117550000Y-88650619D01*
X117550000Y-86037167D01*
X129747838Y-86037167D01*
X129889883Y-86380943D01*
X130152673Y-86644192D01*
X130496201Y-86786838D01*
X130868167Y-86787162D01*
X131211943Y-86645117D01*
X131475192Y-86382327D01*
X131617838Y-86038799D01*
X131617839Y-86037167D01*
X139780838Y-86037167D01*
X139922883Y-86380943D01*
X140185673Y-86644192D01*
X140529201Y-86786838D01*
X140901167Y-86787162D01*
X141244943Y-86645117D01*
X141508192Y-86382327D01*
X141650838Y-86038799D01*
X141651162Y-85666833D01*
X141509117Y-85323057D01*
X141246327Y-85059808D01*
X141153270Y-85021167D01*
X146384838Y-85021167D01*
X146526883Y-85364943D01*
X146789673Y-85628192D01*
X147133201Y-85770838D01*
X147505167Y-85771162D01*
X147848943Y-85629117D01*
X148112192Y-85366327D01*
X148254838Y-85022799D01*
X148254839Y-85021167D01*
X148924838Y-85021167D01*
X149066883Y-85364943D01*
X149329673Y-85628192D01*
X149673201Y-85770838D01*
X150045167Y-85771162D01*
X150388943Y-85629117D01*
X150652192Y-85366327D01*
X150794838Y-85022799D01*
X150795162Y-84650833D01*
X150653117Y-84307057D01*
X150390327Y-84043808D01*
X150046799Y-83901162D01*
X149674833Y-83900838D01*
X149331057Y-84042883D01*
X149067808Y-84305673D01*
X148925162Y-84649201D01*
X148924838Y-85021167D01*
X148254839Y-85021167D01*
X148255162Y-84650833D01*
X148113117Y-84307057D01*
X147850327Y-84043808D01*
X147506799Y-83901162D01*
X147134833Y-83900838D01*
X146791057Y-84042883D01*
X146527808Y-84305673D01*
X146385162Y-84649201D01*
X146384838Y-85021167D01*
X141153270Y-85021167D01*
X140902799Y-84917162D01*
X140530833Y-84916838D01*
X140187057Y-85058883D01*
X139923808Y-85321673D01*
X139781162Y-85665201D01*
X139780838Y-86037167D01*
X131617839Y-86037167D01*
X131618162Y-85666833D01*
X131476117Y-85323057D01*
X131213327Y-85059808D01*
X130869799Y-84917162D01*
X130497833Y-84916838D01*
X130154057Y-85058883D01*
X129890808Y-85321673D01*
X129748162Y-85665201D01*
X129747838Y-86037167D01*
X117550000Y-86037167D01*
X117550000Y-80720000D01*
X120445208Y-80720000D01*
X120408960Y-80899000D01*
X120408960Y-80899000D01*
G37*
X120408960Y-80899000D02*
X120408960Y-82931000D01*
X120453238Y-83166317D01*
X120592310Y-83382441D01*
X120804510Y-83527431D01*
X121056400Y-83578440D01*
X122783600Y-83578440D01*
X123018917Y-83534162D01*
X123235041Y-83395090D01*
X123380031Y-83182890D01*
X123388400Y-83141561D01*
X123400330Y-83159415D01*
X123886511Y-83484271D01*
X124460000Y-83598345D01*
X125033489Y-83484271D01*
X125519670Y-83159415D01*
X125730000Y-82844634D01*
X125940330Y-83159415D01*
X126426511Y-83484271D01*
X127000000Y-83598345D01*
X127573489Y-83484271D01*
X128059670Y-83159415D01*
X128270000Y-82844634D01*
X128480330Y-83159415D01*
X128966511Y-83484271D01*
X129540000Y-83598345D01*
X130113489Y-83484271D01*
X130599670Y-83159415D01*
X130810000Y-82844634D01*
X131020330Y-83159415D01*
X131506511Y-83484271D01*
X132080000Y-83598345D01*
X132653489Y-83484271D01*
X133139670Y-83159415D01*
X133350000Y-82844634D01*
X133560330Y-83159415D01*
X134046511Y-83484271D01*
X134620000Y-83598345D01*
X135193489Y-83484271D01*
X135679670Y-83159415D01*
X135890000Y-82844634D01*
X136100330Y-83159415D01*
X136586511Y-83484271D01*
X137160000Y-83598345D01*
X137733489Y-83484271D01*
X138219670Y-83159415D01*
X138430000Y-82844634D01*
X138640330Y-83159415D01*
X139126511Y-83484271D01*
X139700000Y-83598345D01*
X140273489Y-83484271D01*
X140759670Y-83159415D01*
X140970000Y-82844634D01*
X141180330Y-83159415D01*
X141666511Y-83484271D01*
X142240000Y-83598345D01*
X142813489Y-83484271D01*
X143299670Y-83159415D01*
X143510000Y-82844634D01*
X143720330Y-83159415D01*
X144206511Y-83484271D01*
X144780000Y-83598345D01*
X145353489Y-83484271D01*
X145839670Y-83159415D01*
X146050000Y-82844634D01*
X146260330Y-83159415D01*
X146746511Y-83484271D01*
X147320000Y-83598345D01*
X147893489Y-83484271D01*
X148379670Y-83159415D01*
X148590000Y-82844634D01*
X148800330Y-83159415D01*
X149286511Y-83484271D01*
X149860000Y-83598345D01*
X150433489Y-83484271D01*
X150919670Y-83159415D01*
X151130000Y-82844634D01*
X151340330Y-83159415D01*
X151826511Y-83484271D01*
X152400000Y-83598345D01*
X152973489Y-83484271D01*
X153459670Y-83159415D01*
X153670000Y-82844634D01*
X153880330Y-83159415D01*
X154366511Y-83484271D01*
X154940000Y-83598345D01*
X155513489Y-83484271D01*
X155999670Y-83159415D01*
X156210000Y-82844634D01*
X156420330Y-83159415D01*
X156906511Y-83484271D01*
X157480000Y-83598345D01*
X158053489Y-83484271D01*
X158539670Y-83159415D01*
X158750000Y-82844634D01*
X158960330Y-83159415D01*
X159446511Y-83484271D01*
X160020000Y-83598345D01*
X160593489Y-83484271D01*
X161079670Y-83159415D01*
X161290000Y-82844634D01*
X161500330Y-83159415D01*
X161986511Y-83484271D01*
X162560000Y-83598345D01*
X163133489Y-83484271D01*
X163619670Y-83159415D01*
X163830000Y-82844634D01*
X164040330Y-83159415D01*
X164526511Y-83484271D01*
X165100000Y-83598345D01*
X165673489Y-83484271D01*
X166159670Y-83159415D01*
X166370000Y-82844634D01*
X166580330Y-83159415D01*
X167066511Y-83484271D01*
X167640000Y-83598345D01*
X168213489Y-83484271D01*
X168699670Y-83159415D01*
X168906461Y-82849931D01*
X169277964Y-83265732D01*
X169805209Y-83519709D01*
X169820974Y-83522358D01*
X170053000Y-83401217D01*
X170053000Y-82042000D01*
X170307000Y-82042000D01*
X170307000Y-83401217D01*
X170539026Y-83522358D01*
X170554791Y-83519709D01*
X171082036Y-83265732D01*
X171471954Y-82829320D01*
X171665184Y-82276913D01*
X171520924Y-82042000D01*
X170307000Y-82042000D01*
X170053000Y-82042000D01*
X170033000Y-82042000D01*
X170033000Y-81788000D01*
X170053000Y-81788000D01*
X170053000Y-81768000D01*
X170307000Y-81768000D01*
X170307000Y-81788000D01*
X171520924Y-81788000D01*
X171665184Y-81553087D01*
X171471954Y-81000680D01*
X171221177Y-80720000D01*
X174550000Y-80720000D01*
X174550000Y-88652360D01*
X174234845Y-87889628D01*
X173606679Y-87260364D01*
X172785519Y-86919389D01*
X171896381Y-86918613D01*
X171074628Y-87258155D01*
X170445364Y-87886321D01*
X170104389Y-88707481D01*
X170103613Y-89596619D01*
X170443155Y-90418372D01*
X171071321Y-91047636D01*
X171892481Y-91388611D01*
X172781619Y-91389387D01*
X173603372Y-91049845D01*
X174232636Y-90421679D01*
X174550000Y-89657381D01*
X174550000Y-114687360D01*
X174234845Y-113924628D01*
X173606679Y-113295364D01*
X172785519Y-112954389D01*
X171896381Y-112953613D01*
X171074628Y-113293155D01*
X170445364Y-113921321D01*
X170104389Y-114742481D01*
X170103613Y-115631619D01*
X170443155Y-116453372D01*
X171071321Y-117082636D01*
X171835619Y-117400000D01*
X120262640Y-117400000D01*
X121025372Y-117084845D01*
X121654636Y-116456679D01*
X121995611Y-115635519D01*
X121996387Y-114746381D01*
X121656845Y-113924628D01*
X121028679Y-113295364D01*
X120207519Y-112954389D01*
X119318381Y-112953613D01*
X118496628Y-113293155D01*
X117867364Y-113921321D01*
X117550000Y-114685619D01*
X117550000Y-92035815D01*
X123825630Y-92035815D01*
X124149980Y-92820800D01*
X124618276Y-93289914D01*
X124363907Y-93543839D01*
X124076328Y-94236405D01*
X124075674Y-94986305D01*
X124362043Y-95679372D01*
X124891839Y-96210093D01*
X125584405Y-96497672D01*
X126334305Y-96498326D01*
X127027372Y-96211957D01*
X127558093Y-95682161D01*
X127845672Y-94989595D01*
X127846326Y-94239695D01*
X127559957Y-93546628D01*
X127543525Y-93530167D01*
X137113838Y-93530167D01*
X137255883Y-93873943D01*
X137518673Y-94137192D01*
X137862201Y-94279838D01*
X138234167Y-94280162D01*
X138577943Y-94138117D01*
X138841192Y-93875327D01*
X138983838Y-93531799D01*
X138984162Y-93159833D01*
X138842117Y-92816057D01*
X138579327Y-92552808D01*
X138235799Y-92410162D01*
X137863833Y-92409838D01*
X137520057Y-92551883D01*
X137256808Y-92814673D01*
X137114162Y-93158201D01*
X137113838Y-93530167D01*
X127543525Y-93530167D01*
X127303416Y-93289639D01*
X127769909Y-92823959D01*
X128095628Y-92039541D01*
X128095989Y-91625167D01*
X130509838Y-91625167D01*
X130651883Y-91968943D01*
X130914673Y-92232192D01*
X131258201Y-92374838D01*
X131630167Y-92375162D01*
X131973943Y-92233117D01*
X132237192Y-91970327D01*
X132379838Y-91626799D01*
X132379839Y-91625167D01*
X138764838Y-91625167D01*
X138906883Y-91968943D01*
X139169673Y-92232192D01*
X139513201Y-92374838D01*
X139885167Y-92375162D01*
X140228943Y-92233117D01*
X140492192Y-91970327D01*
X140530045Y-91879167D01*
X147400838Y-91879167D01*
X147542883Y-92222943D01*
X147805673Y-92486192D01*
X148149201Y-92628838D01*
X148521167Y-92629162D01*
X148864943Y-92487117D01*
X149092289Y-92260167D01*
X149305838Y-92260167D01*
X149447883Y-92603943D01*
X149710673Y-92867192D01*
X150054201Y-93009838D01*
X150426167Y-93010162D01*
X150769943Y-92868117D01*
X151033192Y-92605327D01*
X151128787Y-92375110D01*
X151188167Y-92375162D01*
X151531943Y-92233117D01*
X151795192Y-91970327D01*
X151937838Y-91626799D01*
X151937839Y-91625167D01*
X160608838Y-91625167D01*
X160750883Y-91968943D01*
X161013673Y-92232192D01*
X161357201Y-92374838D01*
X161729167Y-92375162D01*
X162072943Y-92233117D01*
X162270589Y-92035815D01*
X163985630Y-92035815D01*
X164309980Y-92820800D01*
X164778276Y-93289914D01*
X164523907Y-93543839D01*
X164236328Y-94236405D01*
X164235674Y-94986305D01*
X164522043Y-95679372D01*
X165051839Y-96210093D01*
X165744405Y-96497672D01*
X166494305Y-96498326D01*
X167187372Y-96211957D01*
X167718093Y-95682161D01*
X168005672Y-94989595D01*
X168006326Y-94239695D01*
X167719957Y-93546628D01*
X167463416Y-93289639D01*
X167929909Y-92823959D01*
X168255628Y-92039541D01*
X168256370Y-91190185D01*
X167932020Y-90405200D01*
X167331959Y-89804091D01*
X166547541Y-89478372D01*
X165698185Y-89477630D01*
X164913200Y-89801980D01*
X164312091Y-90402041D01*
X163986372Y-91186459D01*
X163985630Y-92035815D01*
X162270589Y-92035815D01*
X162336192Y-91970327D01*
X162478838Y-91626799D01*
X162479162Y-91254833D01*
X162337117Y-90911057D01*
X162074327Y-90647808D01*
X161730799Y-90505162D01*
X161358833Y-90504838D01*
X161015057Y-90646883D01*
X160751808Y-90909673D01*
X160609162Y-91253201D01*
X160608838Y-91625167D01*
X151937839Y-91625167D01*
X151938162Y-91254833D01*
X151796117Y-90911057D01*
X151533327Y-90647808D01*
X151189799Y-90505162D01*
X150817833Y-90504838D01*
X150474057Y-90646883D01*
X150210808Y-90909673D01*
X150115213Y-91139890D01*
X150055833Y-91139838D01*
X149712057Y-91281883D01*
X149448808Y-91544673D01*
X149306162Y-91888201D01*
X149305838Y-92260167D01*
X149092289Y-92260167D01*
X149128192Y-92224327D01*
X149270838Y-91880799D01*
X149271162Y-91508833D01*
X149129117Y-91165057D01*
X148866327Y-90901808D01*
X148522799Y-90759162D01*
X148150833Y-90758838D01*
X147807057Y-90900883D01*
X147543808Y-91163673D01*
X147401162Y-91507201D01*
X147400838Y-91879167D01*
X140530045Y-91879167D01*
X140634838Y-91626799D01*
X140635162Y-91254833D01*
X140493117Y-90911057D01*
X140230327Y-90647808D01*
X139886799Y-90505162D01*
X139514833Y-90504838D01*
X139171057Y-90646883D01*
X138907808Y-90909673D01*
X138765162Y-91253201D01*
X138764838Y-91625167D01*
X132379839Y-91625167D01*
X132380162Y-91254833D01*
X132238117Y-90911057D01*
X131975327Y-90647808D01*
X131631799Y-90505162D01*
X131259833Y-90504838D01*
X130916057Y-90646883D01*
X130652808Y-90909673D01*
X130510162Y-91253201D01*
X130509838Y-91625167D01*
X128095989Y-91625167D01*
X128096370Y-91190185D01*
X127772020Y-90405200D01*
X127171959Y-89804091D01*
X126387541Y-89478372D01*
X125538185Y-89477630D01*
X124753200Y-89801980D01*
X124152091Y-90402041D01*
X123826372Y-91186459D01*
X123825630Y-92035815D01*
X117550000Y-92035815D01*
X117550000Y-89655640D01*
X117865155Y-90418372D01*
X118493321Y-91047636D01*
X119314481Y-91388611D01*
X120203619Y-91389387D01*
X121025372Y-91049845D01*
X121654636Y-90421679D01*
X121995611Y-89600519D01*
X121996387Y-88711381D01*
X121656845Y-87889628D01*
X121028679Y-87260364D01*
X120207519Y-86919389D01*
X119318381Y-86918613D01*
X118496628Y-87258155D01*
X117867364Y-87886321D01*
X117550000Y-88650619D01*
X117550000Y-86037167D01*
X129747838Y-86037167D01*
X129889883Y-86380943D01*
X130152673Y-86644192D01*
X130496201Y-86786838D01*
X130868167Y-86787162D01*
X131211943Y-86645117D01*
X131475192Y-86382327D01*
X131617838Y-86038799D01*
X131617839Y-86037167D01*
X139780838Y-86037167D01*
X139922883Y-86380943D01*
X140185673Y-86644192D01*
X140529201Y-86786838D01*
X140901167Y-86787162D01*
X141244943Y-86645117D01*
X141508192Y-86382327D01*
X141650838Y-86038799D01*
X141651162Y-85666833D01*
X141509117Y-85323057D01*
X141246327Y-85059808D01*
X141153270Y-85021167D01*
X146384838Y-85021167D01*
X146526883Y-85364943D01*
X146789673Y-85628192D01*
X147133201Y-85770838D01*
X147505167Y-85771162D01*
X147848943Y-85629117D01*
X148112192Y-85366327D01*
X148254838Y-85022799D01*
X148254839Y-85021167D01*
X148924838Y-85021167D01*
X149066883Y-85364943D01*
X149329673Y-85628192D01*
X149673201Y-85770838D01*
X150045167Y-85771162D01*
X150388943Y-85629117D01*
X150652192Y-85366327D01*
X150794838Y-85022799D01*
X150795162Y-84650833D01*
X150653117Y-84307057D01*
X150390327Y-84043808D01*
X150046799Y-83901162D01*
X149674833Y-83900838D01*
X149331057Y-84042883D01*
X149067808Y-84305673D01*
X148925162Y-84649201D01*
X148924838Y-85021167D01*
X148254839Y-85021167D01*
X148255162Y-84650833D01*
X148113117Y-84307057D01*
X147850327Y-84043808D01*
X147506799Y-83901162D01*
X147134833Y-83900838D01*
X146791057Y-84042883D01*
X146527808Y-84305673D01*
X146385162Y-84649201D01*
X146384838Y-85021167D01*
X141153270Y-85021167D01*
X140902799Y-84917162D01*
X140530833Y-84916838D01*
X140187057Y-85058883D01*
X139923808Y-85321673D01*
X139781162Y-85665201D01*
X139780838Y-86037167D01*
X131617839Y-86037167D01*
X131618162Y-85666833D01*
X131476117Y-85323057D01*
X131213327Y-85059808D01*
X130869799Y-84917162D01*
X130497833Y-84916838D01*
X130154057Y-85058883D01*
X129890808Y-85321673D01*
X129748162Y-85665201D01*
X129747838Y-86037167D01*
X117550000Y-86037167D01*
X117550000Y-80720000D01*
X120445208Y-80720000D01*
X120408960Y-80899000D01*
M02*
